<?xml version="1.0" encoding="UTF-8" standalone="no"?><!DOCTYPE svg PUBLIC "-//W3C//DTD SVG 1.1//EN" "http://www.w3.org/Graphics/SVG/1.1/DTD/svg11.dtd"><svg width="100%" height="100%" viewBox="0 0 3950 525" version="1.1" xmlns="http://www.w3.org/2000/svg" xmlns:xlink="http://www.w3.org/1999/xlink" xml:space="preserve" xmlns:serif="http://www.serif.com/" style="fill-rule:evenodd;clip-rule:evenodd;stroke-linecap:round;stroke-linejoin:round;stroke-miterlimit:1.5;"><rect id="Logo-Projeto-Crescer-Vetorizada-Branca" serif:id="Logo Projeto Crescer Vetorizada Branca" x="0" y="3.241" width="3950" height="520.833" style="fill:none;"/><clipPath id="_clip1"><rect x="0" y="3.241" width="3950" height="520.833"/></clipPath><g clip-path="url(#_clip1)"><g><g><g><path d="M444.16,502.581c-65.56,-54.162 -101.361,-129.499 -96.71,-233.619c-32.14,-62.174 -29.34,-152.955 2.532,-142.482c28.197,25.512 -7.112,89.583 57.722,149.57c27.58,21.608 63.895,21.883 107.659,18.18c73.019,-6.179 13.517,34.819 -52.344,32.397c-47.682,35.96 -40.365,104.708 -18.859,175.954Z" style="fill:#fff;stroke:#fff;stroke-width:4.17px;"/><circle cx="447.905" cy="222.84" r="53.614" style="fill:#fff;stroke:#fff;stroke-width:4.17px;"/></g><g><path d="M109.241,502.581c65.56,-54.162 101.361,-129.499 96.709,-233.619c32.14,-62.174 29.34,-152.955 -2.532,-142.482c-28.196,25.512 7.113,89.583 -57.721,149.57c-27.581,21.608 -63.896,21.883 -107.66,18.18c-73.019,-6.179 -13.517,34.819 52.344,32.397c47.683,35.96 40.365,104.708 18.86,175.954Z" style="fill:#fff;stroke:#fff;stroke-width:4.17px;"/><circle cx="105.495" cy="222.84" r="53.614" style="fill:#fff;stroke:#fff;stroke-width:4.17px;"/></g><g><g><path d="M277.364,380.912c11.165,-1.78 22.025,-6.306 32.624,-13.183c16.02,-11.638 25.749,-11.617 26.702,5.968c3.226,59.568 -15.543,106.801 -59.326,140.099l-0,-132.884Z" style="fill:#fff;stroke:#fff;stroke-width:4.17px;"/><path d="M277.364,380.912c-11.165,-1.78 -22.025,-6.306 -32.624,-13.183c-16.02,-11.638 -25.75,-11.617 -26.702,5.968c-3.226,59.568 15.543,106.801 59.326,140.099l-0,-132.884Z" style="fill:#fff;stroke:#fff;stroke-width:4.17px;"/><circle cx="277.364" cy="314.115" r="53.614" style="fill:#fff;"/></g></g><path d="M200.46,40.351c0.382,0.382 1.714,2.848 0.83,3.733c-2.261,2.261 -3.732,4.562 -5.807,6.637c-0.144,0.143 -0.064,0.893 -0.208,1.037c-0.612,0.612 -1.602,3.375 -0.622,4.355c0.395,0.395 1.069,0.861 1.452,1.244c0.138,0.138 0.691,-0.138 0.829,0c0.147,0.147 0.866,1.83 0.415,2.282c-2.558,2.557 -4.701,5.53 -7.259,8.088c-0.85,0.85 -0.488,4.697 0.208,5.392c0.551,0.552 3.99,1.195 4.977,0.208c1.651,-1.651 4.244,-2.585 6.015,-4.356c0.723,-0.723 2.088,-0.636 2.903,-1.451c1.01,-1.011 2.822,-0.748 3.733,-1.66c0.767,-0.767 4.726,-2.118 6.015,-0.829c0.46,0.46 -0.329,1.573 -0.415,1.659c-1.219,1.219 -2.065,2.38 -3.941,3.318c-2.252,1.127 -4.709,2.635 -6.636,4.563c-0.311,0.311 -1.141,0.104 -1.452,0.415c-0.516,0.516 -1.198,1.197 -1.659,1.659c-1.186,1.185 -1.389,2.426 -2.489,3.526c-0.276,0.276 -0.138,0.967 -0.415,1.244c-0.961,0.961 -1.346,2.798 -2.281,3.733c-0.069,0.069 -0.069,1.59 0,1.659c0.182,0.182 3.502,0.853 3.941,0.415c0.641,-0.641 2.203,-0.544 2.903,-1.244c1.904,-1.905 5.021,-2.533 6.844,-4.356c0.574,-0.574 3.439,-2.575 4.77,-1.244c1.193,1.192 0.019,3.299 -0.622,3.94c-0.76,0.761 -1.992,1.051 -2.752,1.811c-0.933,0.933 -2.442,1.518 -3.375,2.451c-1.451,1.452 -3.757,2.304 -5.072,3.619c-0.896,0.896 -0.762,3.594 -0,4.356c0.168,0.168 1.395,-0 1.659,-0c2.225,-0 3.381,-0.239 4.977,-1.037c1.457,-0.729 3.672,-2.22 4.77,-3.319c0.726,-0.726 1.971,-0.933 2.696,-1.659c0.803,-0.803 2.576,-1.124 3.319,-1.866c0.908,-0.909 4.527,0.587 4.77,0.829c1.091,1.092 -0.765,3.192 -1.294,3.721c-0.904,0.904 -2.438,1.048 -3.269,1.879c-2.018,2.018 -4.401,4.194 -6.429,6.222c-0.49,0.49 -2.422,2.97 -1.452,3.94c0.147,0.147 1.222,0 1.452,0c1.32,0 3.384,0.142 4.148,-0.622c0.691,-0.691 2.627,-0.138 3.318,-0.83c1.705,-1.704 4.099,-2.024 5.807,-3.733c0.779,-0.778 2.351,-0.484 3.111,-1.244c0.693,-0.693 3.415,-0.111 3.941,0.415c2.118,2.118 -2.012,3.598 -3.111,4.148c-0.434,0.216 -1.778,0.582 -2.143,0.947c-1.544,1.544 -3.445,2.982 -4.909,4.445c-0.485,0.485 -1.569,0.739 -2.074,1.244c-0.747,0.747 -0.466,1.918 -1.037,2.489c-0.634,0.634 -2.183,3.208 -1.244,4.148c2.5,2.5 8.932,-0.429 10.577,-2.074c0.346,-0.346 1.531,-0.685 1.877,-1.031c2.074,-2.074 5.428,-3.592 7.248,-4.361c1.216,-0.514 3.236,-0.955 4.148,-1.867c3.983,-3.983 9.882,-7.164 14.658,-10.567c1.664,-1.185 1.967,-1.588 3.091,-2.368c3.413,-2.369 3.008,-2.523 5.553,-4.068c0.292,-0.177 3.21,-1.628 3.452,-1.87c0.834,-0.833 2.515,0.234 2.904,0.622c0.138,0.139 0.593,1.421 0.25,1.763c-0.38,0.38 -1.101,1.376 -1.482,1.756c-1.325,1.326 -2.961,2.155 -4.301,3.496c-2.311,2.31 -5.987,3.799 -8.43,6.242c-0.783,0.783 -2.171,1.251 -2.773,1.853c-1.177,1.178 -3.474,2.196 -4.626,3.348c-3.612,3.613 -9.217,5.692 -12.858,9.333c-2.241,2.241 -5.309,3.442 -7.467,5.6c-0.145,0.146 -1.567,2.165 -0.829,2.903c0.19,0.19 3.56,1.003 4.148,0.415c0.65,-0.65 1.956,-0.504 2.696,-1.244c1.466,-1.466 3.78,-2.122 5.185,-3.526c0.65,-0.65 2.558,0.484 2.696,0.622c0.155,0.156 1.665,2.068 0.829,2.904c-1.713,1.713 -2.928,3.758 -4.562,5.392c-0.173,0.173 -0.964,3.185 -0.415,3.733c0.38,0.38 1.071,0.449 1.452,0.83c0.252,0.252 2.092,-0 2.488,-0c2.81,-0 4.04,-1.089 5.656,-2.233c0.381,-0.269 1.706,-1.305 2.433,-1.801c4.789,-3.267 13.186,-6.894 15.604,-8.15c0.424,-0.22 2.261,-0.775 2.71,-1.225c0.277,-0.276 1.237,-0.42 1.736,-0.578c1.409,-0.445 4.505,-1.278 5.459,-0.324c0.599,0.6 0.143,2.762 -0.207,3.111c-0.242,0.242 -0.173,0.795 -0.415,1.037c-0.664,0.665 -1.521,0.899 -2.281,1.66c-0.903,0.903 -2.735,0.661 -3.733,1.659c-3.129,3.128 -7.671,4.559 -10.785,7.673c-1.192,1.193 -3.304,0.816 -4.563,2.074c-1.175,1.175 -2.765,1.936 -3.94,3.111c-1.002,1.002 -2.109,1.901 -3.111,2.904c-0.337,0.337 -0.3,1.981 0,2.281c0.242,0.242 -0.035,1.002 0.207,1.244c0.354,0.354 2.327,0.785 2.904,0.208c1.544,-1.544 3.846,-2.395 5.392,-3.941c1.487,-1.486 3.699,-2.247 5.185,-3.733c0.589,-0.589 2.083,-0.631 2.696,-1.244c1.288,-1.288 3.406,-1.54 4.77,-2.904c4.116,-4.116 12.935,-8.981 13.875,-9.587c0.633,-0.407 2.175,-1.095 2.717,-1.405c1.627,-0.93 3.14,-2.08 4.977,-2.903c0.683,-0.306 1.635,-0.312 1.911,-0.589c0.139,-0.138 2.514,0.036 2.652,0.174c0.121,0.121 0.852,2.052 0.415,2.489c-0.923,0.922 -1.863,1.807 -2.763,2.593c-0.612,0.535 -1.238,1.595 -2.007,2.177c-1.755,1.326 -4.162,2.917 -5.6,4.355c-1.597,1.597 -4.003,2.758 -5.6,4.355c-0.697,0.698 -2.242,0.791 -2.903,1.452c-1.91,1.909 -5.024,4.275 -7.674,5.6c-1.305,0.652 -2.214,1.592 -3.111,2.488c-0.276,0.277 -0.968,0.139 -1.244,0.415c-0.795,0.795 -1.901,1.279 -2.696,2.074c-0.138,0.138 -1.251,2.068 -0.622,2.696c1.957,1.958 5.76,0.462 7.466,-1.244c0.587,-0.588 1.694,-0.657 2.281,-1.244c3.716,-3.716 8.636,-5.11 12.236,-8.711c1.116,-1.116 2.943,-1.582 3.96,-2.598c1.574,-1.574 2.237,-2.312 4.181,-3.347c0.775,-0.412 2.186,-1.273 3.686,-0.272c0.608,0.406 1.347,3.621 0.202,4.765c-2.611,2.612 -5.427,4.74 -7.952,7.266c-1.049,1.049 -3.192,2.012 -4.284,3.104c-1.276,1.276 -3.466,3.081 -5.185,3.94c-1.523,0.762 -2.852,2.23 -3.94,3.319c-0.45,0.449 0.034,1.832 -0.415,2.281c-0.569,0.569 -0.522,2.382 -0,2.904c0.112,0.112 2.34,0.355 2.489,0.207c1.252,-1.252 3.232,-1.781 4.562,-3.111c1.037,-1.037 2.904,-1.244 3.941,-2.281c1.21,-1.21 2.938,-1.901 4.148,-3.111c1.553,-1.554 2.709,-3.332 4.355,-4.978c1.646,-1.646 3.58,-2.805 4.77,-5.184c0.396,-0.792 1.635,-1.428 2.281,-2.074c2.25,-2.251 4.798,-4.384 7.052,-6.637c6.048,-6.048 12.688,-11.029 18.872,-17.214c0.312,-0.311 0.312,-0.933 0.623,-1.244c2.514,-2.515 5.224,-5.017 7.673,-7.466c0.253,-0.253 0,-2.092 0,-2.489c0,-2.088 -1.09,-6.168 0,-7.259c3.625,-3.625 7.697,-6.452 11.407,-10.162c0.932,-0.932 2.306,-1.476 3.318,-2.489c0.588,-0.587 1.694,-0.656 2.282,-1.244c2.273,-2.273 5.468,-3.602 7.673,-5.807c1.366,-1.366 2.412,-3.241 3.733,-4.563c0.915,-0.914 -0.691,-2.35 -0.829,-2.488c-1.121,-1.121 -4.087,-1.099 -5.185,-0c-0.242,0.242 -1.003,-0.035 -1.245,0.207c-0.438,0.438 -1.657,0.413 -2.074,0.83c-1.729,1.729 -4.211,2.759 -6.014,4.562c-0.37,0.37 -2.313,0.799 -2.696,0.415c-0.125,-0.125 -0,-1.048 -0,-1.244c-0,-1.578 1.54,-2.37 2.281,-3.111c3.274,-3.274 6.533,-6.948 9.748,-10.163c0.218,-0.218 1.876,-3.308 1.037,-4.147c-0.222,-0.222 -2.626,-2.145 -3.526,-1.245c-1.766,1.766 -3.388,4.01 -5.185,5.807c-0.76,0.76 -1.99,1.161 -2.696,1.867c-0.394,0.394 -1.452,0.829 -1.452,0.829c0,0 0.152,-0.773 0.415,-1.037c0.341,-0.341 0.935,-1.193 1.452,-1.451c0.485,-0.243 0.461,-1.084 0.829,-1.452c0.657,-0.657 1.832,-0.795 2.489,-1.452c0.519,-0.518 1.141,-0.933 1.659,-1.452c0.006,-0.005 0.975,-0.622 0.83,-0.622c-0.455,0 -2.209,1.172 -2.489,1.452c-0.657,0.657 -2.039,0.588 -2.696,1.244c-1.614,1.615 -2.154,1.559 -3.591,2.996c-0.693,0.694 -2.328,1.414 -3.036,2.122c-0.935,0.936 -2.694,1.252 -3.648,2.206c-1.898,1.898 -4.241,2.317 -6.174,4.251c-0.863,0.862 -3.954,2.416 -4.763,3.225c-2.367,2.368 -5.445,2.993 -7.456,5.59c-0.291,0.376 -2.752,0.95 -3.263,1.462c-2.545,2.544 -3.65,1.644 -6.281,4.275c-0.346,0.345 -2.676,1.921 -3.022,2.266c-1.041,1.042 -2.748,1.902 -3.77,2.924c-0.909,0.908 -2.595,2.127 -3.733,2.696c-1.169,0.584 -2.402,1.586 -3.196,2.38c-0.974,0.974 -3.128,1.463 -4.198,2.533c-1.615,1.614 -3.587,1.933 -5.08,3.427c-1.453,1.452 -2.844,3.303 -4.533,1.615c-0.103,-0.104 -0.246,-2.569 0.065,-2.88c0.859,-0.859 1.586,-2.605 2.794,-3.209c0.613,-0.307 2.59,-1.503 3.039,-1.951c1.437,-1.438 2.332,-1.252 3.836,-2.755c0.811,-0.811 1.725,-0.872 2.502,-1.649c1.651,-1.65 2.739,-1.647 4.37,-3.278c0.327,-0.327 2.098,-1.323 2.474,-1.699c6.509,-6.508 14.657,-9.834 21.648,-15.875c1.2,-1.037 3.137,-2.045 3.793,-2.702c1.653,-1.653 2.872,-1.41 4.72,-3.258c0.519,-0.519 2.781,-1.917 3.379,-2.342c4.318,-3.067 6.246,-3.995 8.976,-6.725c1.771,-1.771 5.024,-1.706 6.637,-3.318c2.048,-2.048 4.98,-3.114 6.844,-4.978c0.138,-0.138 0.691,0.139 0.829,0c0.899,-0.898 2.42,-1.175 3.319,-2.074c1.224,-1.224 2.155,-2.778 3.318,-3.94c1.056,-1.057 -0.178,-3.911 -0.622,-4.355c-0.078,-0.078 -1.789,-0.078 -1.867,-0c-1.348,1.348 -3.629,1.762 -4.977,3.11c-0.623,0.624 -1.744,0.499 -2.282,1.037c-1.248,1.249 -3.293,1.842 -4.562,3.111c-0.311,0.311 -1.141,0.104 -1.452,0.415c-2.727,2.727 -6.636,4.148 -9.748,7.259c-0.276,0.276 -0.967,0.138 -1.244,0.415c-1.27,1.27 -3.316,2.072 -4.563,3.318c-1.493,1.494 -3.789,1.716 -5.184,3.111c-0.189,0.189 -1.549,0.014 -1.66,-0.207c-0.078,-0.157 -0.106,-1.76 0,-1.867c1.521,-1.521 3.25,-2.834 4.771,-4.355c2.385,-2.385 4.873,-4.667 7.258,-7.052c0.346,-0.345 1.106,-0.276 1.452,-0.622c1.687,-1.686 3.4,-2.778 4.978,-4.355c1.754,-1.754 3.364,-3.78 5.184,-5.6c0.68,-0.679 0.088,-2.783 0.83,-3.525c0.051,-0.052 0.051,-1.194 -0,-1.245c-0.104,-0.103 -1.336,-1.153 -1.867,-0.622c-0.369,0.369 -0.994,0.373 -1.451,0.83c-1.562,1.561 -8.211,5.269 -10.992,2.488c-0.069,-0.069 -0.069,-1.59 -0,-1.659c0.691,-0.691 1.797,-0.968 2.488,-1.659c1.677,-1.676 3.955,-2.917 5.6,-4.563c1.211,-1.211 1.47,-2.507 2.489,-3.525c0.641,-0.641 0.616,-3.532 -0,-4.148c-0.13,-0.13 -2.981,-0.13 -3.111,-0c-1.665,1.665 -5.042,1.516 -6.637,3.111c-0.306,0.306 -1.197,0.16 -1.451,0.414c-1.419,1.419 -3.88,1.599 -5.393,3.111c-0.496,0.496 -2.131,0.472 -2.696,1.037c-1.533,1.534 -3.901,2.45 -5.599,4.148c-0.655,0.655 -1.756,0.718 -2.282,1.245c-1.811,1.81 -3.805,2.768 -5.599,4.562c-0.104,0.104 -0.519,-0.103 -0.623,0c-2.895,2.896 -6.127,5.091 -8.917,7.881c-0.5,0.5 -1.492,0.454 -2.074,1.037c-1.919,1.919 -3.84,3.218 -5.6,4.978c-0.147,0.146 -1.978,1.548 -2.696,0.829c-0.156,-0.155 -1.217,-2.516 -0.622,-3.111c1.641,-1.641 2.965,-3.794 4.562,-5.392c0.629,-0.629 0.728,-1.557 1.452,-2.281c1.435,-1.435 3.094,-2.68 4.355,-3.941c1.103,-1.102 2.662,-1.21 3.733,-2.281c1.459,-1.459 3.503,-2.466 4.978,-3.941c1.063,-1.063 3.497,-1.008 4.563,-2.074c1.749,-1.749 4.571,-2.29 6.221,-3.94c0.346,-0.346 1.314,-0.069 1.66,-0.415c1.571,-1.571 1.575,-4.438 -0,-6.014c-0.172,-0.172 -2.637,-1.927 -3.319,-1.245c-2.869,2.869 -8.343,3.574 -11.199,6.43c-0.76,0.76 -2.351,0.691 -3.111,1.451c-0.711,0.712 -2.634,2.282 -3.733,2.282c-0.224,-0 -1.129,0.53 -1.452,0.207c-1.493,-1.493 0.778,-3.681 1.245,-4.148c0.518,-0.518 0.518,-1.555 1.037,-2.074c1.909,-1.91 4.176,-3.346 6.014,-5.185c0.622,-0.621 -0.51,-1.961 -0.622,-2.073c-0.086,-0.087 -1.631,-0.443 -1.867,-0.208c-0.939,0.939 -2.775,1.324 -3.733,2.281c-1.378,1.378 -3.859,1.785 -5.185,3.111c-0.242,0.242 -1.002,-0.034 -1.244,0.208c-0.691,0.691 -2.005,0.76 -2.696,1.452c-0.346,0.345 -1.314,0.069 -1.659,0.414c-1.672,1.672 -4.98,2.698 -6.637,4.356c-0.346,0.345 -1.106,0.276 -1.452,0.622c-1.071,1.071 -2.039,2.247 -3.111,3.318c-0.167,0.168 -0.451,1.83 -0.207,2.074c0.676,0.676 2.351,-0.691 2.489,-0.83c0.357,-0.357 1.25,-0.421 1.659,-0.829c0.811,-0.811 4.717,-3.164 6.014,-1.867c0.121,0.121 0.121,2.783 0,2.904c-0.735,0.735 -0.619,2.071 -1.451,2.903c-0.795,0.795 -1.694,1.487 -2.489,2.282c-1.453,1.453 -4.162,2.087 -5.807,3.733c-3.376,3.376 -8.569,4.835 -12.236,8.503c-0.553,0.553 -1.729,0.484 -2.282,1.037c-0.898,0.899 -2.005,1.59 -2.903,2.489c-0.5,0.5 -1.753,0.601 -2.074,1.244c-0.446,0.892 -1.695,0.865 -2.282,1.452c-1.386,1.386 -3.376,2.546 -4.77,3.94c-0.219,0.219 -2.393,1.133 -2.696,0.83c-1.83,-1.83 1.868,-4.357 2.696,-5.185c2.854,-2.853 5.771,-5.563 8.504,-8.296c1.797,-1.797 4.631,-2.558 6.429,-4.355c1.308,-1.308 2.903,-1.284 2.903,-3.941c0,-0.263 0.168,-1.491 0,-1.659c-0.462,-0.462 -2.968,-2.423 -4.148,-1.244c-1.204,1.205 -2.809,1.773 -3.94,2.903c-0.834,0.835 -2.152,0.493 -2.904,1.245c-2.46,2.461 -5.508,3.226 -8.088,5.807c-0.999,0.998 -2.647,1.195 -3.526,2.074c-0.908,0.908 -5.779,3.968 -7.051,2.696c-0.06,-0.06 -0.06,-1.392 -0,-1.452c0.658,-0.658 1.186,-1.808 1.867,-2.489c0.315,-0.315 0.978,-0.297 1.244,-0.829c0.675,-1.351 2.614,-2.2 3.94,-3.526c1.203,-1.202 2.412,-2.619 3.733,-3.94c0.837,-0.837 2.275,-1.445 3.111,-2.282c0.72,-0.72 1.867,-1.513 1.867,-2.903c-0,-0.231 0.147,-1.305 -0,-1.452c-2.134,-2.134 -7.143,-0.738 -8.918,1.037c-1.232,1.232 -3.351,1.899 -4.563,3.111c-0.553,0.553 -1.728,0.484 -2.281,1.037c-1.834,1.834 -4.628,2.969 -6.429,4.77c-0.657,0.657 -2.04,0.588 -2.696,1.244c-1.197,1.197 -3.101,2.276 -4.356,2.904c-2.322,1.161 -4.218,3.25 -6.429,4.355c-0.521,0.261 -2.683,2.087 -2.903,1.867c-0.107,-0.107 -0.517,-2.594 -0.208,-2.904c1.469,-1.469 2.803,-3.01 4.356,-4.563c1.529,-1.529 3.384,-3.384 4.977,-4.977c1.58,-1.58 4.294,-2.013 5.807,-3.526c0.484,-0.484 1.59,-0.345 2.074,-0.829c2.888,-2.888 7.337,-5.056 10.162,-7.881c1.402,-1.402 3.447,-2.953 4.356,-4.77c0.412,-0.826 1.344,-2.804 0.622,-3.526c-1.388,-1.388 -5.594,0.616 -6.222,1.244c-1.482,1.482 -3.674,3.082 -6.222,4.356c-1.214,0.606 -2.967,1.101 -3.94,2.074c-1.146,1.146 -2.821,1.576 -3.733,2.488c-0.377,0.377 -1.157,1.201 -1.66,1.452c-2.026,1.013 -3.402,2.427 -5.184,3.318c-0.438,0.219 -1.031,0.194 -1.245,0.623c-0.269,0.537 -1.414,0.377 -1.866,0.829c-1.141,1.141 -3.215,1.348 -4.356,2.489c-0.068,0.069 -1.59,0.069 -1.659,-0c-0.121,-0.121 -0.55,-2.353 -0.207,-2.696c0.916,-0.916 2.214,-1.8 3.111,-2.696c3.035,-3.036 5.665,-6.288 8.503,-9.126c0.457,-0.457 0.253,-1.29 0.622,-1.659c0.173,-0.173 2.071,-2.077 1.244,-2.903c-0.311,-0.311 -0.725,-0.519 -1.037,-0.83c-0.095,-0.095 -2.032,-0.249 -2.074,-0.207c-1.092,1.092 -2.525,1.488 -3.525,2.488c-0.346,0.346 -1.314,0.07 -1.659,0.415c-0.89,0.889 -2.502,1.257 -3.526,2.282c-0.475,0.475 -1.787,0.335 -2.281,0.829c-1.075,1.074 -3.056,0.982 -4.148,2.074c-1.828,1.828 -5.377,2.681 -7.259,4.563c-0.288,0.288 -1.083,0.045 -1.452,0.414c-1.25,1.25 -3.287,1.421 -4.562,2.697c-0.448,0.447 -2.691,3.946 -1.245,5.392c0.277,0.276 0.761,0.345 1.037,0.622c0.288,0.288 0.268,1.037 0.83,1.037" style="fill:#fff;stroke:#fff;stroke-width:4.17px;"/></g><g><path d="M692.913,375.672l-0,138.626l90.058,-0l0,-21.126l-66.583,0l0,-38.407l53.267,-0l-0,-20.734l-53.267,-0l0,-37.429l64.429,0l0,-20.93l-87.904,0Z" style="fill:#fff;fill-rule:nonzero;"/><path d="M897.926,514.298l-0,-146.067l-23.084,-0l-0,59.711c-5.682,-8.802 -18.221,-15.453 -31.348,-15.453c-25.662,0 -46.594,21.321 -46.594,52.067c0,30.77 20.737,52.092 46.79,52.092c13.519,-0 26.841,-6.846 32.521,-16.04l0,13.69l21.715,-0Zm-49.73,-18.384c-15.086,0 -28.016,-12.538 -28.016,-31.346c-0,-18.611 12.93,-31.149 28.016,-31.149c15.086,-0 27.82,12.342 27.82,31.149c-0,18.808 -12.734,31.346 -27.82,31.346Z" style="fill:#fff;fill-rule:nonzero;"/><path d="M996.258,500.216l-0,14.082l22.497,-0l-0,-99.459l-23.28,0l0,50.917c0,13.512 -6.662,29.962 -24.688,29.962c-11.756,0 -21.161,-7.637 -21.161,-22.716l-0,-58.163l-23.28,0l-0,60.513c-0,26.234 15.65,41.296 38.563,41.296c15.675,-0 25.668,-6.651 31.349,-16.431l-0,-0.001Z" style="fill:#fff;fill-rule:nonzero;"/><path d="M1135.67,495.718l-15.275,-14.105c-5.679,8.228 -14.883,13.909 -26.437,13.909c-16.45,0 -28.788,-13.322 -28.788,-30.954c0,-17.632 12.142,-31.149 28.984,-31.149c11.358,-0 19.583,6.465 25.066,14.693l15.275,-14.106c-8.812,-13.497 -22.521,-21.517 -40.733,-21.517c-29.179,0 -52.263,22.693 -52.263,51.884c-0,29.582 23.084,52.275 52.459,52.275c17.625,-0 32.704,-8.02 41.712,-20.93Z" style="fill:#fff;fill-rule:nonzero;"/><path d="M1227.15,500.59l-0,13.708l21.713,-0l-0,-99.459l-23.084,0l-0,12.517c-5.682,-8.216 -18.221,-14.867 -31.347,-14.867c-25.662,0 -46.595,21.321 -46.595,52.079c0,30.758 20.737,52.08 46.791,52.08c13.518,-0 26.841,-6.846 32.522,-16.04l-0,-0.018Zm-28.016,-4.676c-15.086,0 -28.017,-12.538 -28.017,-31.346c0,-18.611 12.931,-31.149 28.017,-31.149c15.085,-0 27.82,12.342 27.82,31.149c0,18.808 -12.735,31.346 -27.82,31.346Z" style="fill:#fff;fill-rule:nonzero;"/><path d="M1301.15,428.92l0,-14.081l-22.497,0l0,99.459l23.28,-0l-0,-50.917c-0,-13.512 6.662,-29.962 24.688,-29.962c11.756,-0 21.161,7.441 21.161,22.716l0,58.163l23.28,-0l-0,-60.513c-0,-26.234 -15.65,-41.296 -38.563,-41.296c-15.675,0 -25.668,6.455 -31.349,16.431l0,0Z" style="fill:#fff;fill-rule:nonzero;"/><path d="M1493.85,514.298l0,-146.067l-23.083,-0l-0,59.711c-5.682,-8.802 -18.221,-15.453 -31.348,-15.453c-25.662,0 -46.594,21.321 -46.594,52.067c-0,30.77 20.736,52.092 46.79,52.092c13.518,-0 26.841,-6.846 32.521,-16.04l-0,13.69l21.714,-0Zm-49.729,-18.384c-15.086,0 -28.016,-12.538 -28.016,-31.346c-0,-18.611 12.93,-31.149 28.016,-31.149c15.086,-0 27.819,12.342 27.819,31.149c0,18.808 -12.733,31.346 -27.819,31.346Z" style="fill:#fff;fill-rule:nonzero;"/><path d="M1569.06,412.489c-30.169,0 -52.276,22.497 -52.276,52.079c0,29.387 22.107,52.08 52.276,52.08c30.169,-0 52.275,-22.693 52.275,-52.08c-0,-29.582 -22.106,-52.079 -52.275,-52.079Zm-0,21.126c16.653,-0 28.604,13.517 28.604,30.953c-0,17.437 -11.951,30.954 -28.604,30.954c-16.653,0 -28.604,-13.517 -28.604,-30.954c-0,-17.436 11.951,-30.953 28.604,-30.953Z" style="fill:#fff;fill-rule:nonzero;"/><path d="M1737.08,412.489c-29.776,0 -50.709,22.892 -50.709,52.271c0,29.586 22.303,51.888 54.04,51.888c16.262,-0 29.376,-4.89 41.113,-16.235l-12.911,-15.868c-6.455,6.664 -16.054,11.761 -27.614,11.761c-15.478,-0 -28.606,-9.409 -30.369,-25.875l72.068,0c0.587,-2.933 1.174,-7.235 1.174,-11.733c-0,-25.866 -18.193,-46.209 -46.792,-46.209Zm0,19.755c13.128,-0 22.924,8.626 24.099,21.566l-50.157,-0c2.351,-13.136 12.539,-21.566 26.058,-21.566Z" style="fill:#fff;fill-rule:nonzero;"/><path d="M1942.11,495.718l-15.275,-14.105c-5.679,8.228 -14.883,13.909 -26.438,13.909c-16.45,0 -28.787,-13.322 -28.787,-30.954c-0,-17.632 12.142,-31.149 28.983,-31.149c11.359,-0 19.584,6.465 25.067,14.693l15.275,-14.106c-8.813,-13.497 -22.521,-21.517 -40.733,-21.517c-29.179,0 -52.263,22.693 -52.263,51.884c-0,29.582 23.084,52.275 52.458,52.275c17.625,-0 32.705,-8.02 41.713,-20.93Z" style="fill:#fff;fill-rule:nonzero;"/><path d="M2006.16,412.489c-30.169,0 -52.276,22.497 -52.276,52.079c0,29.387 22.107,52.08 52.276,52.08c30.169,-0 52.275,-22.693 52.275,-52.08c-0,-29.582 -22.106,-52.079 -52.275,-52.079Zm-0,21.126c16.653,-0 28.604,13.517 28.604,30.953c-0,17.437 -11.951,30.954 -28.604,30.954c-16.653,0 -28.604,-13.517 -28.604,-30.954c-0,-17.436 11.951,-30.953 28.604,-30.953Z" style="fill:#fff;fill-rule:nonzero;"/><path d="M2081.37,414.839l-0,99.459l23.28,-0l-0,-51.113c-0,-13.512 6.466,-29.766 24.492,-29.766c11.756,-0 20.965,7.637 20.965,22.912l0,57.967l23.28,-0l0,-51.113c0,-13.512 6.662,-29.766 24.492,-29.766c11.953,-0 20.966,7.637 20.966,22.912l-0,57.967l23.28,-0l-0,-60.317c-0,-26.235 -15.651,-41.492 -38.368,-41.492c-16.066,0 -26.255,6.26 -35.065,19.169c-6.26,-12.323 -18.389,-19.169 -33.672,-19.169c-15.479,0 -25.668,6.651 -31.153,16.431l0,-14.081l-22.497,0Z" style="fill:#fff;fill-rule:nonzero;"/><path d="M2270.74,553.465l23.084,-0l-0,-51.487c5.681,8.411 18.416,14.67 30.955,14.67c26.054,-0 46.986,-21.322 46.986,-52.08c0,-30.758 -20.932,-52.079 -46.79,-52.079c-13.91,0 -26.645,7.433 -32.521,16.431l0,-14.081l-21.714,0l-0,138.626Zm21.91,-88.884c-0,-18.82 12.733,-31.162 27.819,-31.162c14.89,-0 27.821,12.538 27.821,31.149c-0,18.808 -12.931,31.346 -27.821,31.346c-15.086,0 -27.819,-12.538 -27.819,-31.346l-0,0.013Z" style="fill:#fff;fill-rule:nonzero;"/><path d="M2467.55,500.59l0,13.708l21.713,-0l0,-99.459l-23.084,0l0,12.517c-5.682,-8.216 -18.22,-14.867 -31.347,-14.867c-25.662,0 -46.594,21.321 -46.594,52.079c-0,30.758 20.736,52.08 46.79,52.08c13.518,-0 26.841,-6.846 32.522,-16.04l0,-0.018Zm-28.016,-4.676c-15.086,0 -28.017,-12.538 -28.017,-31.346c0,-18.611 12.931,-31.149 28.017,-31.149c15.086,-0 27.82,12.342 27.82,31.149c0,18.808 -12.734,31.346 -27.82,31.346Z" style="fill:#fff;fill-rule:nonzero;"/><path d="M2541.95,414.839l-22.889,0l0,99.459l23.28,-0l0,-45.031c0,-20.182 9.204,-34.086 29.179,-34.086c1.763,0 3.917,0.392 4.7,0.588l0,-22.497c-1.175,-0.392 -3.525,-0.783 -5.875,-0.783c-13.708,0 -23.5,8.216 -28.395,20.345l-0,-17.995Z" style="fill:#fff;fill-rule:nonzero;"/><path d="M2650.63,492.388c-4.504,2.547 -9.4,3.134 -12.142,3.134c-9.987,0 -14.883,-4.701 -14.883,-14.889l-0,-47.018l27.612,-0l0,-18.776l-27.612,0l-0,-28.396l-22.497,0l-0,28.396l-15.47,0l-0,18.776l14.687,-0l0,50.153c0,20.948 12.325,32.88 32.484,32.88c7.833,-0 13.708,-1.369 17.821,-3.717l-0,-20.543Z" style="fill:#fff;fill-rule:nonzero;"/><path d="M2672.4,514.298l23.28,-0l-0,-99.459l-23.28,0l-0,99.459Zm11.542,-142.151c-7.631,0 -13.696,5.87 -13.696,13.697c-0,7.63 6.065,13.696 13.696,13.696c7.63,-0 13.696,-6.066 13.696,-13.696c-0,-7.827 -6.066,-13.697 -13.696,-13.697Z" style="fill:#fff;fill-rule:nonzero;"/><rect x="2725.27" y="368.01" width="23.28" height="146.288" style="fill:#fff;fill-rule:nonzero;"/><path d="M2778.15,514.298l23.28,-0l-0,-49.742c-0,-19.191 13.127,-31.333 25.667,-31.333c10.973,-0 20.182,6.658 20.182,20.954l0,60.121l23.28,-0l-0,-62.471c-0,-27.015 -17.998,-39.534 -38.171,-39.534c-12.54,0 -24.297,5.477 -30.958,17.8l-0,-62.058l-23.28,-0l-0,146.263Z" style="fill:#fff;fill-rule:nonzero;"/><path d="M2971.63,500.59l0,13.708l21.713,-0l0,-99.459l-23.084,0l0,12.517c-5.682,-8.216 -18.22,-14.867 -31.347,-14.867c-25.662,0 -46.594,21.321 -46.594,52.079c-0,30.758 20.736,52.08 46.79,52.08c13.518,-0 26.841,-6.846 32.522,-16.04l0,-0.018Zm-28.016,-4.676c-15.086,0 -28.017,-12.538 -28.017,-31.346c0,-18.611 12.931,-31.149 28.017,-31.149c15.086,-0 27.82,12.342 27.82,31.149c0,18.808 -12.734,31.346 -27.82,31.346Z" style="fill:#fff;fill-rule:nonzero;"/><path d="M3045.63,428.92l-0,-14.081l-22.498,0l0,99.459l23.28,-0l0,-50.917c0,-13.512 6.662,-29.962 24.688,-29.962c11.757,-0 21.162,7.441 21.162,22.716l-0,58.163l23.279,-0l0,-60.513c0,-26.234 -15.65,-41.296 -38.563,-41.296c-15.675,0 -25.667,6.455 -31.348,16.431l-0,0Z" style="fill:#fff;fill-rule:nonzero;"/><path d="M3238.33,514.298l-0,-146.067l-23.084,-0l-0,59.711c-5.682,-8.802 -18.221,-15.453 -31.348,-15.453c-25.662,0 -46.594,21.321 -46.594,52.067c0,30.77 20.737,52.092 46.79,52.092c13.519,-0 26.841,-6.846 32.521,-16.04l0,13.69l21.715,-0Zm-49.73,-18.384c-15.085,0 -28.016,-12.538 -28.016,-31.346c-0,-18.611 12.931,-31.149 28.016,-31.149c15.086,-0 27.82,12.342 27.82,31.149c-0,18.808 -12.734,31.346 -27.82,31.346Z" style="fill:#fff;fill-rule:nonzero;"/><path d="M3313.54,412.489c-30.169,0 -52.275,22.497 -52.275,52.079c-0,29.387 22.106,52.08 52.275,52.08c30.169,-0 52.275,-22.693 52.275,-52.08c0,-29.582 -22.106,-52.079 -52.275,-52.079Zm-0,21.126c16.653,-0 28.604,13.517 28.604,30.953c-0,17.437 -11.951,30.954 -28.604,30.954c-16.653,0 -28.604,-13.517 -28.604,-30.954c0,-17.436 11.951,-30.953 28.604,-30.953Z" style="fill:#fff;fill-rule:nonzero;"/><path d="M3510.37,500.59l-0,13.708l21.713,-0l-0,-99.459l-23.084,0l-0,12.517c-5.682,-8.216 -18.221,-14.867 -31.348,-14.867c-25.662,0 -46.594,21.321 -46.594,52.079c0,30.758 20.737,52.08 46.79,52.08c13.519,-0 26.841,-6.846 32.523,-16.04l-0,-0.018Zm-28.017,-4.676c-15.085,0 -28.016,-12.538 -28.016,-31.346c-0,-18.611 12.931,-31.149 28.016,-31.149c15.086,-0 27.821,12.342 27.821,31.149c-0,18.808 -12.735,31.346 -27.821,31.346Z" style="fill:#fff;fill-rule:nonzero;"/><path d="M3561.87,414.839l-0,99.459l23.28,-0l-0,-51.113c-0,-13.512 6.466,-29.766 24.492,-29.766c11.756,-0 20.965,7.637 20.965,22.912l0,57.967l23.28,-0l0,-51.113c0,-13.512 6.662,-29.766 24.492,-29.766c11.953,-0 20.966,7.637 20.966,22.912l-0,57.967l23.28,-0l-0,-60.317c-0,-26.235 -15.651,-41.492 -38.368,-41.492c-16.066,0 -26.255,6.26 -35.065,19.169c-6.26,-12.323 -18.389,-19.169 -33.672,-19.169c-15.479,0 -25.668,6.651 -31.153,16.431l0,-14.081l-22.497,0Z" style="fill:#fff;fill-rule:nonzero;"/><path d="M3796.66,412.489c-30.169,0 -52.275,22.497 -52.275,52.079c-0,29.387 22.106,52.08 52.275,52.08c30.169,-0 52.275,-22.693 52.275,-52.08c0,-29.582 -22.106,-52.079 -52.275,-52.079Zm-0,21.126c16.653,-0 28.604,13.517 28.604,30.953c-0,17.437 -11.951,30.954 -28.604,30.954c-16.653,0 -28.604,-13.517 -28.604,-30.954c-0,-17.436 11.951,-30.953 28.604,-30.953Z" style="fill:#fff;fill-rule:nonzero;"/><path d="M3894.76,414.839l-22.888,0l0,99.459l23.28,-0l-0,-45.031c-0,-20.182 9.204,-34.086 29.179,-34.086c1.762,0 3.917,0.392 4.7,0.588l-0,-22.497c-1.175,-0.392 -3.525,-0.783 -5.875,-0.783c-13.708,0 -23.5,8.216 -28.396,20.345l0,-17.995Z" style="fill:#fff;fill-rule:nonzero;"/><g transform="matrix(4.16667,0,0,4.16667,-31.2623,-1657.49)"><g transform="matrix(81,0,0,81,169.663,471.335)"><path d="M0.06,-0.825l0,0.825l0.188,-0l-0,-0.306l0.113,-0c0.161,-0 0.282,-0.095 0.282,-0.265c-0,-0.171 -0.121,-0.254 -0.282,-0.254l-0.301,0Zm0.188,0.369l-0,-0.219l0.053,-0c0.074,-0 0.144,0.025 0.144,0.11c0,0.084 -0.07,0.109 -0.144,0.109l-0.053,0Z" style="fill:#fff;fill-rule:nonzero;"/></g><g transform="matrix(81,0,0,81,223.609,471.335)"><path d="M0.06,-0.825l0,0.825l0.188,-0l-0,-0.326l0.252,0.326l0.239,-0l-0.284,-0.341c0.101,-0.032 0.169,-0.115 0.169,-0.239c-0,-0.162 -0.116,-0.245 -0.269,-0.245l-0.295,0Zm0.188,0.366l-0,-0.216l0.022,-0c0.071,-0 0.156,0.005 0.156,0.108c0,0.103 -0.085,0.108 -0.156,0.108l-0.022,-0Z" style="fill:#fff;fill-rule:nonzero;"/></g><g transform="matrix(81,0,0,81,281.605,471.335)"><path d="M0.023,-0.413c0,0.241 0.172,0.428 0.416,0.428c0.237,-0 0.415,-0.187 0.415,-0.428c-0,-0.241 -0.186,-0.427 -0.415,-0.427c-0.227,0 -0.416,0.186 -0.416,0.427Zm0.203,-0c-0,-0.123 0.068,-0.246 0.213,-0.246c0.146,-0 0.212,0.123 0.212,0.246c0,0.123 -0.062,0.246 -0.212,0.246c-0.154,0 -0.213,-0.123 -0.213,-0.246Z" style="fill:#fff;fill-rule:nonzero;"/></g><g transform="matrix(81,0,0,81,352.642,471.335)"><path d="M0.419,-0.825l-0.188,0l0,0.544c0,0.083 -0.041,0.116 -0.095,0.116c-0.048,0 -0.107,-0.056 -0.107,-0.056l-0.06,0.157c0,-0 0.075,0.079 0.193,0.079c0.165,-0 0.257,-0.086 0.257,-0.248l-0,-0.592Z" style="fill:#fff;fill-rule:nonzero;"/></g><g transform="matrix(81,0,0,81,390.631,471.335)"><path d="M0.532,-0.825l-0.472,0l0,0.825l0.472,-0l-0,-0.165l-0.284,0l-0,-0.166l0.272,-0l-0,-0.165l-0.272,0l-0,-0.164l0.284,-0l-0,-0.165Z" style="fill:#fff;fill-rule:nonzero;"/></g><g transform="matrix(81,0,0,81,437.611,471.335)"><path d="M0.008,-0.66l0.196,-0l0,0.66l0.188,-0l-0,-0.66l0.196,-0l-0,-0.165l-0.58,0l0,0.165Z" style="fill:#fff;fill-rule:nonzero;"/></g><g transform="matrix(81,0,0,81,483.295,471.335)"><path d="M0.023,-0.413c0,0.241 0.172,0.428 0.416,0.428c0.237,-0 0.415,-0.187 0.415,-0.428c-0,-0.241 -0.186,-0.427 -0.415,-0.427c-0.227,0 -0.416,0.186 -0.416,0.427Zm0.203,-0c-0,-0.123 0.068,-0.246 0.213,-0.246c0.146,-0 0.212,0.123 0.212,0.246c0,0.123 -0.062,0.246 -0.212,0.246c-0.154,0 -0.213,-0.123 -0.213,-0.246Z" style="fill:#fff;fill-rule:nonzero;"/></g><g transform="matrix(80,0,0,80,573.612,471.335)"><path d="M0.499,-0.17c-0.189,0 -0.272,-0.132 -0.272,-0.243c-0,-0.11 0.083,-0.242 0.272,-0.242c0.096,-0 0.162,0.051 0.162,0.051l0.08,-0.16c-0,0 -0.092,-0.076 -0.271,-0.076c-0.234,0 -0.447,0.192 -0.447,0.429c0,0.236 0.214,0.426 0.447,0.426c0.179,-0 0.271,-0.076 0.271,-0.076l-0.08,-0.16c-0,0 -0.066,0.051 -0.162,0.051Z" style="fill:#fff;fill-rule:nonzero;"/></g><g transform="matrix(80,0,0,80,633.852,471.335)"><path d="M0.06,-0.825l0,0.825l0.188,-0l-0,-0.326l0.252,0.326l0.239,-0l-0.284,-0.341c0.101,-0.032 0.169,-0.115 0.169,-0.239c-0,-0.162 -0.116,-0.245 -0.269,-0.245l-0.295,0Zm0.188,0.366l-0,-0.216l0.022,-0c0.071,-0 0.156,0.005 0.156,0.108c0,0.103 -0.085,0.108 -0.156,0.108l-0.022,-0Z" style="fill:#fff;fill-rule:nonzero;"/></g><g transform="matrix(80,0,0,80,691.132,471.335)"><path d="M0.532,-0.825l-0.472,0l0,0.825l0.472,-0l-0,-0.165l-0.284,0l-0,-0.166l0.272,-0l-0,-0.165l-0.272,0l-0,-0.164l0.284,-0l-0,-0.165Z" style="fill:#fff;fill-rule:nonzero;"/></g><g transform="matrix(80,0,0,80,737.532,471.335)"><path d="M0.364,-0.84c-0.133,0 -0.269,0.098 -0.269,0.252c0,0.086 0.058,0.163 0.157,0.212c0.098,0.049 0.186,0.076 0.186,0.136c0,0.077 -0.078,0.081 -0.119,0.081c-0.092,0 -0.202,-0.093 -0.202,-0.093l-0.094,0.158c0,0 0.117,0.109 0.31,0.109c0.161,-0 0.311,-0.069 0.311,-0.266c-0,-0.108 -0.101,-0.186 -0.193,-0.225c-0.094,-0.04 -0.172,-0.073 -0.172,-0.119c-0,-0.045 0.034,-0.074 0.098,-0.074c0.085,-0 0.167,0.057 0.167,0.057l0.076,-0.15c-0,0 -0.106,-0.078 -0.256,-0.078Z" style="fill:#fff;fill-rule:nonzero;"/></g><g transform="matrix(80,0,0,80,788.732,471.335)"><path d="M0.499,-0.17c-0.189,0 -0.272,-0.132 -0.272,-0.243c-0,-0.11 0.083,-0.242 0.272,-0.242c0.096,-0 0.162,0.051 0.162,0.051l0.08,-0.16c-0,0 -0.092,-0.076 -0.271,-0.076c-0.234,0 -0.447,0.192 -0.447,0.429c0,0.236 0.214,0.426 0.447,0.426c0.179,-0 0.271,-0.076 0.271,-0.076l-0.08,-0.16c-0,0 -0.066,0.051 -0.162,0.051Z" style="fill:#fff;fill-rule:nonzero;"/></g><g transform="matrix(80,0,0,80,848.972,471.335)"><path d="M0.532,-0.825l-0.472,0l0,0.825l0.472,-0l-0,-0.165l-0.284,0l-0,-0.166l0.272,-0l-0,-0.165l-0.272,0l-0,-0.164l0.284,-0l-0,-0.165Z" style="fill:#fff;fill-rule:nonzero;"/></g><g transform="matrix(80,0,0,80,895.372,471.335)"><path d="M0.06,-0.825l0,0.825l0.188,-0l-0,-0.326l0.252,0.326l0.239,-0l-0.284,-0.341c0.101,-0.032 0.169,-0.115 0.169,-0.239c-0,-0.162 -0.116,-0.245 -0.269,-0.245l-0.295,0Zm0.188,0.366l-0,-0.216l0.022,-0c0.071,-0 0.156,0.005 0.156,0.108c0,0.103 -0.085,0.108 -0.156,0.108l-0.022,-0Z" style="fill:#fff;fill-rule:nonzero;"/></g></g></g></g></g></svg>